<svg xmlns="http://www.w3.org/2000/svg" viewBox="0 0 1024 1024"><path fill="#d4bfc7" d="M664.86 507.15a426.6 426.6 0 0 0 52.33-70.33C778.16 335.19 747.93 202 747.93 202c-124-29.27-242.51 6.85-327.88 99.32-26.32-6.42-71.69-1.74-116.91 39.19l56 51.35a481.6 481.6 0 0 0-41.8 128.3s-11.71 70.19-3.45 119.32c9.75 78 45 154.76 117.88 217.7 0 0 46.61-108.7 166.5-100.57-85.08-56.41-201.32-11.62-168-80.82 19.32-40.08 77.36-55.32 143.15-95"/><path fill="#d4bfc7" d="M664.85 507.13s31.31 60.86 12.58 93.38c-5.28 9.16-25.2-5.32-49-2.86-27 2.79-46.55 19.53-51.44 6.14-10.56-28.92 3.22-74.2 30.19-84.14"/><path fill="#2a2b2b" d="M661.704 262.42a21.52 21.52 0 1 0 7.511-42.38 21.52 21.52 0 1 0-7.51 42.38M275.27 595.93h.08A13.63 13.63 0 0 0 289 582.38c0-7 .26-14.12.66-21.19a13.62 13.62 0 1 0-27.21-1.52c-.42 7.52-.66 15.11-.7 22.56a13.62 13.62 0 0 0 13.52 13.7"/><path fill="#2a2b2b" d="M733 410.93a13.54 13.54 0 0 0 3.41-6.74C763 349.8 769 290.76 769 248.81c.07-50.63-8.09-87.14-8.43-88.67a13.63 13.63 0 0 0-10.16-10.24c-69-16.28-136.2-14.75-199.81 4.55C489.43 173 434.89 207 388.42 255.61c-16.71-2.62-35.67-1.37-54.28 3.66-26.9 7.27-52.6 21.87-76.38 43.39a13.62 13.62 0 0 0-.07 20.14l53 48.65a528.7 528.7 0 0 0-41.94 133 13.62 13.62 0 1 0 26.85 4.65 510 510 0 0 1 44-134.93 13.62 13.62 0 0 0-3-16l-49-45c39.19-30.37 77.92-35.52 102.4-29.55a13.63 13.63 0 0 0 13.24-4c28-30.28 59.11-54.73 93.09-73.15 8.71 34.21 37.28 78.79 76.85 119.21 41.22 42.22 87.16 72.32 128.76 84.88a450 450 0 0 1-54.35 72.92q-.42.46-.8 1l-.11.15q-.33.44-.61.91l-.17.28c-.16.27-.31.55-.45.83l-.2.4c-.11.25-.22.5-.32.76s-.13.32-.18.49-.16.49-.23.74-.1.34-.14.52-.11.52-.16.78-.06.33-.08.49-.06.56-.09.84 0 .3 0 .45v1.31c0 .15 0 .56.07.84s0 .32.06.49.09.5.14.76.08.39.13.59.11.42.18.62.15.48.24.72l.19.48q.17.42.37.82l.09.2A215 215 0 0 1 659 534.11c5.88 20.83 6.63 37.54 2.25 48.74-2.17-.43-4.93-1.13-7.19-1.7-9.56-2.42-22.65-5.73-37.23-4.22-13.18 1.36-24.49 5.28-33.57 8.44-2.85 1-6.36 2.21-9.06 3-3-11.6-2.1-26.47 2.48-40 5-14.86 13.76-25.83 23.32-29.35a13.62 13.62 0 1 0-9.43-25.56c-17.44 6.43-31.91 23.25-39.69 46.15a107 107 0 0 0-5.22 24.68c-19.91 11.66-39.41 21.5-56.8 30.27-45.05 22.72-80.64 40.67-96.92 74.44-8.77 18.19-10 32.55-3.75 43.89 10.45 19 37 22.09 70.71 26 22.22 2.58 47.79 5.56 73 13.32-42.81 9-73.91 31.27-94.31 51.3A227 227 0 0 0 401.93 849c-30.42-28.61-55-60.83-73.3-96A351.8 351.8 0 0 1 292 634a13.62 13.62 0 1 0-27 3.38 378.9 378.9 0 0 0 39.5 128.25c22.35 43 53.45 81.87 92.44 115.52a13.62 13.62 0 0 0 21.42-4.94c.12-.27 11.83-27.18 38.38-53.25 35.29-34.65 78.36-50.51 128-47.16a13.62 13.62 0 0 0 8.45-24.95C549.66 722 499 716.12 462 711.82c-20.63-2.4-46.3-5.38-50-12.08-1.21-2.2-.68-8.33 4.43-18.93 12.26-25.44 44.2-41.55 84.64-61.94 14.36-7.24 30.14-15.2 46.55-24.37a70 70 0 0 0 2.2 7.27c3.34 9.16 11.07 14.49 20.84 14.49h1.6c6.14-.36 12.5-2.57 19.88-5.12 8.16-2.83 17.4-6 27.44-7.07 9.78-1 19.32 1.4 27.74 3.53 5.79 1.46 10.79 2.73 15.7 2.92 12 .46 17.62-6.14 19.91-10.12 10.3-17.88 11-42.82 2.09-74.13a244 244 0 0 0-11.31-31.1 482 482 0 0 0 52-71.37c2.64-4.27 5.02-8.55 7.29-12.87M592.6 306.68c-38.42-39.25-66.13-83.15-71.11-112.47a335 335 0 0 1 37.08-13.68c56.33-17.09 115.86-19.11 177.08-6a441 441 0 0 1 6.16 75c-.11 37.14-5.21 88.66-26.91 136.48-38.39-10.13-82.32-38.49-122.3-79.33"/><path fill="#2a2b2b" d="M358.8 541.58a13.62 13.62 0 0 0 19.26-.32l156.52-161.72A13.62 13.62 0 0 0 515 360.59L358.48 522.32a13.62 13.62 0 0 0 .32 19.26m123.69-24.98a13.62 13.62 0 0 0 19.26-.32L591 424.06a13.62 13.62 0 1 0-19.58-18.95l-89.25 92.22a13.62 13.62 0 0 0 .32 19.27m-87.05-94.8 93.82-97a13.62 13.62 0 1 0-19.58-18.95l-93.82 97a13.62 13.62 0 1 0 19.58 18.95"/></svg>