<svg xmlns="http://www.w3.org/2000/svg" viewBox="0 0 131 24"><title>形状</title><path fill="#303030" d="M.03 11.29v11.3l6.5-.3c4.8-.3 6.5-.7 6.5-1.8 0-1-1.3-1.4-4.8-1.4h-4.8l.4-3.5c.4-3.4.5-3.5 4.8-3.5 3.2 0 4.4-.4 4.4-1.5s-1.2-1.5-4.5-1.5c-4.3 0-4.5-.1-4.5-3s.2-3 4.5-3c3.3 0 4.5-.4 4.5-1.5 0-1.2-1.4-1.5-6.5-1.5H.03zm49.5-10c-3.8 2-5.5 5.1-5.5 10 0 3.8.6 5.4 2.8 7.8 4.5 5.2 15.2 5.1 15.2 0 0-1.7-.2-1.8-2.7-.4-4.1 2.1-6.1 1.7-9.4-1.5-3.8-3.8-3.9-8.2-.3-11.7 2-2.1 3.2-2.5 6.2-2.2 2 .3 4.5.8 5.4 1.2 2.1.9 1.9-2.1-.3-3.5-1.9-1.2-9-1.1-11.4.3m35.2-.5c-.3.5-.2 1.5.3 2.2 1 1.7 4.3.6 3.8-1.2-.6-1.5-3.4-2.2-4.1-1m-67.7 4.2c0 1.7-.4 3.1-1 3.1-.5 0-1 .7-1 1.5s.6 1.5 1.3 1.5c.8 0 1.2 1.8 1.2 5.7 0 4.5.3 5.8 1.5 5.8s1.4-1.2 1.2-5.8c-.3-4.7-.1-5.7 1.2-5.7.9 0 1.6-.7 1.6-1.5s-.7-1.5-1.6-1.5c-1.1 0-1.5-.8-1.2-2.7.2-2-.2-2.9-1.4-3.1-1.4-.3-1.8.3-1.8 2.7m90 0c0 2.1-.5 3.1-1.5 3.1-.8 0-1.5.7-1.5 1.5s.7 1.5 1.5 1.5c1.2 0 1.5 1.3 1.5 6.1 0 5.1.3 6 1.7 5.7 1.4-.2 1.6-1.3 1.4-6.1-.2-4.6 0-5.7 1.3-5.7.9 0 1.6-.7 1.6-1.5s-.7-1.5-1.6-1.5c-1.1 0-1.5-.8-1.2-2.7.2-2-.2-2.9-1.4-3.1-1.4-.3-1.8.3-1.8 2.7m-13 3.9c-3 2.4-2 5.3 2.5 7.5 1.9.9 3.5 2.1 3.5 2.6 0 1.6-2.8 2-4.6.6-1-.7-2.4-1-3.2-.8-1 .4-.9.9.4 2.4 2.1 2.3 6.7 2.5 8.8.3 2.8-2.7 1.9-5.2-2.8-7.5-3.2-1.5-3.2-3.3-.1-3.5 3.7-.2 4-.5 2.1-1.9-2.6-2-3.9-1.9-6.6.3m24.3.2c-2.8 1.7-3.3 2.5-3.3 5.9 0 3.1.6 4.4 2.6 6 1.5 1.2 3.7 2.1 4.9 2.1 3.5 0 7.5-3.7 7.5-7 0-4.2-.9-5.9-4.1-7.5-3.6-1.9-3.8-1.9-7.6.5m8.5 5.9c.4 2.8-1.4 5.1-4.2 5.1-4.7 0-6.3-5.7-2.4-8.4 1.9-1.3 2.5-1.4 4.3-.2 1.1.7 2.1 2.3 2.3 3.5m-100.8-1.1c0 6.7 1.8 9.2 6.6 9.2 5.2 0 7.4-3.2 7.4-10.4 0-3.9-.3-4.6-2-4.6-1.6 0-1.9.8-2.2 5.7-.3 5.7-.3 5.8-3.3 5.8s-3-.1-3.3-5.8c-.2-4.2-.7-5.7-1.7-5.7-1.2 0-1.5 1.4-1.5 5.8m40.3-.2c.7 6.7 2.8 9.4 7.2 9.4 4.5 0 6.3-2.5 6.7-9.3.2-4.8 0-5.7-1.4-5.7s-1.8 1.1-2 5.7c-.3 5.7-.3 5.8-3.3 5.8s-3-.1-3.3-5.8c-.3-5-.5-5.7-2.4-5.7s-2 .4-1.5 5.6m18.7 1.3c0 5.2.4 7 1.5 7.5 1.3.4 1.5-.7 1.5-6.9 0-6-.3-7.5-1.5-7.5s-1.5 1.4-1.5 6.9"/></svg>